<svg
  width="24"
  height="24"
  viewBox="0 0 24 24"
  fill="#C6492A"
  xmlns="http://www.w3.org/2000/svg"
>
  <path
    d="M17.2714 15.4215C16.1797 16.5132 14.7951 17.8151 13.1157 19.3282C13.1156 19.3283 13.1155 19.3284 13.1153 19.3286L12 20.3285L10.8847 19.3286C10.8845 19.3284 10.8844 19.3283 10.8843 19.3282C9.20494 17.8151 7.82026 16.5132 6.72855 15.4215C5.63918 14.3321 4.78211 13.3634 4.15137 12.5144C3.52024 11.6648 3.09558 10.9052 2.85909 10.2339C2.61929 9.55316 2.5 8.8593 2.5 8.15002C2.5 6.70785 2.97791 5.52922 3.92855 4.57858C4.8792 3.62793 6.05783 3.15002 7.5 3.15002C8.29356 3.15002 9.04619 3.31733 9.76303 3.65287C10.4807 3.98878 11.0982 4.46115 11.619 5.07385L12 5.52205L12.381 5.07385C12.9018 4.46115 13.5193 3.98878 14.237 3.65287C14.9538 3.31733 15.7064 3.15002 16.5 3.15002C17.9422 3.15002 19.1208 3.62793 20.0714 4.57858C21.0221 5.52922 21.5 6.70785 21.5 8.15002C21.5 8.8593 21.3807 9.55316 21.1409 10.2339C20.9044 10.9052 20.4798 11.6648 19.8486 12.5144C19.2179 13.3634 18.3608 14.3321 17.2714 15.4215Z"
    stroke="#C6492A"
  />
</svg>
