<svg width="24" height="24" viewBox="0 0 24 24" fill="none" xmlns="http://www.w3.org/2000/svg">
<path d="M17.2714 15.4215C16.1797 16.5132 14.7951 17.8151 13.1157 19.3282C13.1156 19.3283 13.1155 19.3284 13.1153 19.3286L12 20.3285L10.8847 19.3286C10.8845 19.3284 10.8844 19.3283 10.8843 19.3282C9.20494 17.8151 7.82026 16.5132 6.72855 15.4215C5.63918 14.3321 4.78211 13.3634 4.15137 12.5144C3.52024 11.6648 3.09558 10.9052 2.85909 10.2339C2.61929 9.55316 2.5 8.8593 2.5 8.15002C2.5 6.70785 2.97791 5.52922 3.92855 4.57858C4.8792 3.62793 6.05783 3.15002 7.5 3.15002C8.29356 3.15002 9.04619 3.31733 9.76303 3.65287C10.4807 3.98878 11.0982 4.46115 11.619 5.07385L12 5.52205L12.381 5.07385C12.9018 4.46115 13.5193 3.98878 14.237 3.65287C14.9538 3.31733 15.7064 3.15002 16.5 3.15002C17.9422 3.15002 19.1208 3.62793 20.0714 4.57858C21.0221 5.52922 21.5 6.70785 21.5 8.15002C21.5 8.8593 21.3807 9.55316 21.1409 10.2339C20.9044 10.9052 20.4798 11.6648 19.8486 12.5144C19.2179 13.3634 18.3608 14.3321 17.2714 15.4215ZM11.6664 18.6724L12 18.9713L12.3336 18.6724C13.9373 17.2358 15.2607 16.0005 16.3021 14.9675C17.3433 13.9347 18.1752 13.0275 18.7921 12.2478C19.4085 11.4688 19.857 10.7504 20.1151 10.096C20.3694 9.45117 20.5 8.8016 20.5 8.15002C20.5 7.02634 20.1201 6.06304 19.3536 5.29647C18.587 4.52991 17.6237 4.15002 16.5 4.15002C15.6163 4.15002 14.7956 4.40099 14.0489 4.8957C13.4082 5.32013 12.9257 5.85513 12.6182 6.50002H11.3818C11.0743 5.85513 10.5918 5.32013 9.95115 4.8957C9.20442 4.40099 8.38371 4.15002 7.5 4.15002C6.37632 4.15002 5.41301 4.52991 4.64645 5.29647C3.87988 6.06304 3.5 7.02634 3.5 8.15002C3.5 8.8016 3.63058 9.45117 3.88486 10.096C4.14296 10.7504 4.59154 11.4688 5.20789 12.2478C5.82483 13.0275 6.65666 13.9347 7.69788 14.9675C8.73932 16.0005 10.0627 17.2358 11.6664 18.6724Z" stroke="#C6492A"/>
</svg>
